<?xml version="1.0" encoding="UTF-8"?>
<svg xmlns="http://www.w3.org/2000/svg" xmlns:xlink="http://www.w3.org/1999/xlink" viewBox="0 0 24 24" width="24px" height="24px">
<g id="surface108864651">
<rect x="0" y="0" width="24" height="24" style="fill:rgb(86.666667%,86.666667%,86.666667%);fill-opacity:0.32941;stroke:none;"/>
<path style=" stroke:none;fill-rule:nonzero;fill:rgb(0%,0%,0%);fill-opacity:1;" d="M 11.359375 6.226562 C 8.675781 6.515625 6.515625 8.675781 6.226562 11.300781 C 5.933594 14.042969 7.507812 16.492188 9.898438 17.425781 C 10.074219 17.484375 10.25 17.367188 10.25 17.132812 L 10.25 16.199219 C 10.25 16.199219 10.015625 16.257812 9.726562 16.257812 C 8.910156 16.257812 8.558594 15.558594 8.5 15.148438 C 8.441406 14.917969 8.324219 14.742188 8.148438 14.566406 C 7.976562 14.507812 7.917969 14.507812 7.917969 14.449219 C 7.917969 14.332031 8.089844 14.332031 8.148438 14.332031 C 8.5 14.332031 8.792969 14.742188 8.910156 14.917969 C 9.199219 15.382812 9.550781 15.5 9.726562 15.5 C 9.957031 15.5 10.132812 15.441406 10.25 15.382812 C 10.308594 14.976562 10.484375 14.566406 10.832031 14.332031 C 9.492188 14.042969 8.5 13.285156 8.5 12 C 8.5 11.359375 8.792969 10.714844 9.199219 10.25 C 9.140625 10.132812 9.082031 9.839844 9.082031 9.433594 C 9.082031 9.199219 9.082031 8.851562 9.257812 8.5 C 9.257812 8.5 10.074219 8.5 10.890625 9.257812 C 11.183594 9.140625 11.589844 9.082031 12 9.082031 C 12.410156 9.082031 12.816406 9.140625 13.167969 9.257812 C 13.925781 8.5 14.800781 8.5 14.800781 8.5 C 14.917969 8.851562 14.917969 9.199219 14.917969 9.433594 C 14.917969 9.898438 14.859375 10.132812 14.800781 10.25 C 15.207031 10.714844 15.5 11.300781 15.5 12 C 15.5 13.285156 14.507812 14.042969 13.167969 14.332031 C 13.515625 14.625 13.75 15.148438 13.75 15.675781 L 13.75 17.191406 C 13.75 17.367188 13.925781 17.542969 14.160156 17.484375 C 16.316406 16.609375 17.832031 14.507812 17.832031 12.058594 C 17.832031 8.558594 14.859375 5.816406 11.359375 6.226562 Z M 11.359375 6.226562 "/>
</g>
</svg>
