<?xml version="1.0" encoding="UTF-8"?>
<svg xmlns="http://www.w3.org/2000/svg" xmlns:xlink="http://www.w3.org/1999/xlink" viewBox="0 0 30 30" width="30px" height="30px">
<g id="surface108870505">
<rect x="0" y="0" width="30" height="30" style="fill:rgb(86.666667%,86.666667%,86.666667%);fill-opacity:0.32157;stroke:none;"/>
<path style=" stroke:none;fill-rule:nonzero;fill:rgb(0%,0%,0%);fill-opacity:1;" d="M 15 7 C 10.582031 7 7 10.582031 7 15 C 7 19.417969 10.582031 23 15 23 C 19.417969 23 23 19.417969 23 15 C 23 10.582031 19.417969 7 15 7 Z M 11.996094 10.601562 C 12.558594 10.601562 12.933594 10.976562 12.933594 11.476562 C 12.933594 11.972656 12.558594 12.347656 11.933594 12.347656 C 11.375 12.347656 11 11.972656 11 11.476562 C 11 10.976562 11.375 10.601562 11.996094 10.601562 Z M 13 18.332031 L 11 18.332031 L 11 13 L 13 13 Z M 19.667969 18.332031 L 17.785156 18.332031 L 17.785156 15.417969 C 17.785156 14.613281 17.28125 14.425781 17.09375 14.425781 C 16.90625 14.425781 16.277344 14.550781 16.277344 15.417969 C 16.277344 15.542969 16.277344 18.332031 16.277344 18.332031 L 14.332031 18.332031 L 14.332031 13 L 16.277344 13 L 16.277344 13.742188 C 16.53125 13.308594 17.03125 13 17.972656 13 C 18.914062 13 19.667969 13.742188 19.667969 15.417969 Z M 19.667969 18.332031 "/>
</g>
</svg>
