<?xml version="1.0" encoding="UTF-8"?>
<svg xmlns="http://www.w3.org/2000/svg" xmlns:xlink="http://www.w3.org/1999/xlink" viewBox="0 0 50 50" width="50px" height="50px">
<g id="surface108991749">
<rect x="0" y="0" width="50" height="50" style="fill:rgb(86.666667%,86.666667%,86.666667%);fill-opacity:0.43922;stroke:none;"/>
<path style=" stroke:none;fill-rule:nonzero;fill:rgb(0%,0%,0%);fill-opacity:1;" d="M 32.375 9.375 C 27.589844 9.375 23.699219 13.265625 23.699219 18.050781 C 23.699219 18.335938 23.773438 18.617188 23.800781 18.898438 C 17.882812 18.335938 12.652344 15.484375 9.101562 11.125 C 8.933594 10.914062 8.679688 10.804688 8.410156 10.820312 C 8.144531 10.839844 7.90625 10.992188 7.773438 11.226562 C 7.027344 12.507812 6.601562 13.988281 6.601562 15.574219 C 6.601562 17.496094 7.289062 19.257812 8.351562 20.699219 C 8.144531 20.609375 7.917969 20.558594 7.726562 20.449219 C 7.476562 20.320312 7.179688 20.324219 6.941406 20.46875 C 6.699219 20.613281 6.554688 20.871094 6.550781 21.148438 L 6.550781 21.25 C 6.550781 24.195312 8.074219 26.757812 10.324219 28.324219 C 10.300781 28.320312 10.273438 28.332031 10.25 28.324219 C 9.976562 28.277344 9.695312 28.375 9.511719 28.585938 C 9.328125 28.792969 9.269531 29.085938 9.351562 29.351562 C 10.242188 32.128906 12.523438 34.25 15.351562 35.023438 C 13.101562 36.363281 10.492188 37.148438 7.675781 37.148438 C 7.066406 37.148438 6.480469 37.117188 5.898438 37.050781 C 5.523438 37 5.164062 37.21875 5.039062 37.574219 C 4.914062 37.929688 5.054688 38.328125 5.375 38.523438 C 8.984375 40.839844 13.269531 42.199219 17.875 42.199219 C 25.339844 42.199219 31.195312 39.082031 35.125 34.625 C 39.054688 30.167969 41.101562 24.382812 41.101562 18.976562 C 41.101562 18.746094 41.082031 18.523438 41.074219 18.300781 C 42.539062 17.179688 43.851562 15.863281 44.875 14.324219 C 45.078125 14.027344 45.054688 13.632812 44.820312 13.355469 C 44.589844 13.082031 44.199219 12.996094 43.875 13.148438 C 43.460938 13.335938 42.980469 13.351562 42.550781 13.5 C 43.117188 12.742188 43.605469 11.921875 43.898438 11 C 44 10.683594 43.890625 10.335938 43.632812 10.132812 C 43.371094 9.929688 43.007812 9.902344 42.726562 10.074219 C 41.359375 10.882812 39.847656 11.453125 38.25 11.800781 C 36.699219 10.351562 34.660156 9.375 32.375 9.375 Z M 32.375 10.976562 C 34.414062 10.976562 36.257812 11.847656 37.550781 13.226562 C 37.742188 13.425781 38.027344 13.507812 38.300781 13.449219 C 39.34375 13.242188 40.335938 12.941406 41.300781 12.550781 C 40.742188 13.300781 40.054688 13.941406 39.25 14.425781 C 38.882812 14.601562 38.710938 15.023438 38.847656 15.410156 C 38.976562 15.789062 39.378906 16.011719 39.773438 15.925781 C 40.574219 15.828125 41.289062 15.503906 42.050781 15.300781 C 41.367188 16.039062 40.617188 16.710938 39.800781 17.300781 C 39.578125 17.460938 39.457031 17.726562 39.476562 18 C 39.488281 18.324219 39.5 18.648438 39.5 18.976562 C 39.5 23.976562 37.582031 29.402344 33.925781 33.550781 C 30.269531 37.695312 24.898438 40.601562 17.875 40.601562 C 14.683594 40.601562 11.671875 39.894531 8.949219 38.648438 C 12.324219 38.390625 15.4375 37.195312 17.949219 35.226562 C 18.210938 35.015625 18.316406 34.664062 18.210938 34.347656 C 18.101562 34.027344 17.808594 33.808594 17.476562 33.800781 C 14.835938 33.753906 12.628906 32.21875 11.449219 30.050781 C 11.492188 30.050781 11.53125 30.050781 11.574219 30.050781 C 12.367188 30.050781 13.148438 29.949219 13.875 29.75 C 14.226562 29.648438 14.464844 29.320312 14.453125 28.957031 C 14.441406 28.589844 14.179688 28.277344 13.824219 28.199219 C 10.976562 27.625 8.84375 25.304688 8.351562 22.425781 C 9.15625 22.703125 9.980469 22.921875 10.875 22.949219 C 11.242188 22.972656 11.570312 22.742188 11.683594 22.398438 C 11.796875 22.050781 11.660156 21.667969 11.351562 21.476562 C 9.449219 20.203125 8.199219 18.039062 8.199219 15.574219 C 8.199219 14.664062 8.4375 13.824219 8.75 13.023438 C 12.75 17.414062 18.351562 20.332031 24.675781 20.648438 C 24.925781 20.664062 25.167969 20.558594 25.332031 20.367188 C 25.492188 20.175781 25.554688 19.917969 25.5 19.675781 C 25.378906 19.15625 25.300781 18.605469 25.300781 18.050781 C 25.300781 14.132812 28.457031 10.976562 32.375 10.976562 Z M 32.375 10.976562 "/>
</g>
</svg>
